<svg xmlns="http://www.w3.org/2000/svg" xmlns:xlink="http://www.w3.org/1999/xlink" width="50" zoomAndPan="magnify" viewBox="0 0 37.5 37.499999" height="50" preserveAspectRatio="xMidYMid meet" version="1.2"><defs><clipPath id="60484ea72b"><path d="M 0 0.804688 L 28.109375 0.804688 L 28.109375 28.914062 L 0 28.914062 Z M 0 0.804688 "/></clipPath><clipPath id="ca65ddced4"><path d="M 14.054688 0.804688 C 6.292969 0.804688 0 7.097656 0 14.859375 C 0 22.621094 6.292969 28.914062 14.054688 28.914062 C 21.816406 28.914062 28.109375 22.621094 28.109375 14.859375 C 28.109375 7.097656 21.816406 0.804688 14.054688 0.804688 Z M 14.054688 0.804688 "/></clipPath><clipPath id="fbbb0d2065"><path d="M 0 0.804688 L 28.109375 0.804688 L 28.109375 28.914062 L 0 28.914062 Z M 0 0.804688 "/></clipPath><clipPath id="378f170575"><path d="M 14.054688 0.804688 C 6.292969 0.804688 0 7.097656 0 14.859375 C 0 22.621094 6.292969 28.914062 14.054688 28.914062 C 21.816406 28.914062 28.109375 22.621094 28.109375 14.859375 C 28.109375 7.097656 21.816406 0.804688 14.054688 0.804688 Z M 14.054688 0.804688 "/></clipPath><clipPath id="92e4f67889"><rect x="0" width="29" y="0" height="29"/></clipPath><clipPath id="3ba5565289"><path d="M 5.109375 5.753906 L 36.933594 5.753906 L 36.933594 36.097656 L 5.109375 36.097656 Z M 5.109375 5.753906 "/></clipPath></defs><g id="be5532114f"><g clip-rule="nonzero" clip-path="url(#60484ea72b)"><g clip-rule="nonzero" clip-path="url(#ca65ddced4)"><g transform="matrix(1,0,0,1,0,0)"><g clip-path="url(#92e4f67889)"><g clip-rule="nonzero" clip-path="url(#fbbb0d2065)"><g clip-rule="nonzero" clip-path="url(#378f170575)"><path style=" stroke:none;fill-rule:nonzero;fill:#fe5703;fill-opacity:1;" d="M 0 0.804688 L 28.109375 0.804688 L 28.109375 28.914062 L 0 28.914062 Z M 0 0.804688 "/></g></g></g></g></g></g><g clip-rule="nonzero" clip-path="url(#3ba5565289)"><path style=" stroke:none;fill-rule:nonzero;fill:#ffffff;fill-opacity:1;" d="M 36.03125 5.761719 C 35.984375 5.761719 35.933594 5.765625 35.886719 5.777344 L 35.882812 5.777344 L 31.015625 6.605469 C 30.707031 6.660156 30.445312 6.871094 30.332031 7.164062 C 30.332031 7.164062 30.332031 7.167969 30.332031 7.167969 L 28.074219 12.957031 L 6.035156 13.507812 C 5.78125 13.515625 5.542969 13.628906 5.378906 13.820312 C 5.214844 14.011719 5.132812 14.265625 5.164062 14.515625 L 6.382812 24.582031 C 6.433594 25.003906 6.78125 25.335938 7.203125 25.371094 L 22.917969 26.621094 L 26.03125 29.070312 C 26.035156 29.074219 26.039062 29.074219 26.042969 29.078125 C 26.046875 29.082031 26.050781 29.082031 26.054688 29.082031 C 26.054688 29.085938 26.058594 29.089844 26.0625 29.089844 C 26.632812 29.515625 26.773438 30.09375 26.691406 30.414062 C 26.648438 30.597656 26.578125 30.730469 26.410156 30.835938 C 26.246094 30.9375 25.957031 31.015625 25.46875 30.984375 C 25.464844 30.984375 25.464844 30.984375 25.460938 30.984375 C 25.445312 30.984375 25.429688 30.984375 25.414062 30.984375 L 25.40625 30.984375 L 6.664062 31.039062 C 6.171875 31.039062 5.753906 31.449219 5.757812 31.941406 C 5.757812 32.433594 6.175781 32.847656 6.667969 32.839844 L 6.671875 32.839844 L 8.039062 32.835938 C 7.53125 33.160156 7.191406 33.730469 7.191406 34.375 C 7.191406 35.375 8.011719 36.199219 9.015625 36.199219 C 10.015625 36.199219 10.835938 35.375 10.835938 34.375 C 10.835938 33.726562 10.496094 33.152344 9.980469 32.828125 L 25.414062 32.785156 C 24.859375 33.097656 24.476562 33.695312 24.476562 34.375 C 24.476562 35.375 25.300781 36.199219 26.300781 36.199219 C 27.304688 36.199219 28.125 35.375 28.125 34.375 C 28.125 33.503906 27.507812 32.769531 26.6875 32.589844 C 27.460938 32.316406 28.058594 31.75 28.425781 30.886719 C 28.433594 30.878906 28.4375 30.867188 28.441406 30.855469 C 28.722656 29.726562 28.222656 28.496094 27.1875 27.695312 C 27.183594 27.695312 27.183594 27.691406 27.179688 27.6875 C 27.175781 27.6875 27.175781 27.683594 27.175781 27.679688 C 27.164062 27.667969 27.15625 27.660156 27.144531 27.652344 L 24.9375 25.917969 L 31.820312 8.292969 L 36.1875 7.550781 C 36.648438 7.476562 36.984375 7.046875 36.941406 6.585938 C 36.902344 6.121094 36.5 5.753906 36.03125 5.761719 Z M 27.410156 14.347656 L 26.140625 17.601562 L 24.488281 17.601562 L 24.488281 14.421875 Z M 23.855469 14.4375 L 23.855469 17.601562 L 20.800781 17.601562 L 20.800781 14.511719 Z M 20.167969 14.527344 L 20.167969 17.601562 L 17.117188 17.601562 L 17.117188 14.605469 Z M 16.484375 14.621094 L 16.484375 17.601562 L 13.429688 17.601562 L 13.429688 14.695312 Z M 12.796875 14.714844 L 12.796875 17.601562 L 9.746094 17.601562 L 9.746094 14.789062 Z M 9.113281 14.804688 L 9.113281 17.601562 L 6.875 17.601562 L 6.542969 14.867188 Z M 6.949219 18.230469 L 9.113281 18.230469 L 9.113281 21.085938 L 7.296875 21.085938 Z M 9.746094 18.230469 L 12.796875 18.230469 L 12.796875 21.085938 L 9.746094 21.085938 Z M 13.429688 18.230469 L 16.484375 18.230469 L 16.484375 21.085938 L 13.429688 21.085938 Z M 17.117188 18.230469 L 20.167969 18.230469 L 20.167969 21.085938 L 17.117188 21.085938 Z M 20.800781 18.230469 L 23.855469 18.230469 L 23.855469 21.085938 L 20.800781 21.085938 Z M 24.488281 18.230469 L 25.898438 18.230469 L 24.78125 21.085938 L 24.488281 21.085938 Z M 7.371094 21.714844 L 9.113281 21.714844 L 9.113281 23.765625 L 7.605469 23.644531 Z M 9.746094 21.714844 L 12.800781 21.714844 L 12.800781 24.058594 L 9.746094 23.816406 Z M 13.429688 21.714844 L 16.484375 21.714844 L 16.484375 24.351562 L 13.429688 24.109375 Z M 17.117188 21.714844 L 20.171875 21.714844 L 20.171875 24.644531 L 17.117188 24.402344 Z M 20.800781 21.714844 L 23.855469 21.714844 L 23.855469 23.453125 L 23.277344 24.9375 C 23.199219 24.902344 23.117188 24.878906 23.035156 24.871094 L 20.800781 24.695312 Z M 24.488281 21.714844 L 24.535156 21.714844 L 24.488281 21.84375 Z M 9.015625 33.300781 C 9.613281 33.300781 10.085938 33.777344 10.085938 34.375 C 10.085938 34.96875 9.613281 35.441406 9.015625 35.441406 C 8.417969 35.441406 7.945312 34.96875 7.945312 34.375 C 7.945312 33.777344 8.417969 33.300781 9.015625 33.300781 Z M 26.304688 33.300781 C 26.898438 33.300781 27.375 33.777344 27.375 34.375 C 27.375 34.96875 26.898438 35.441406 26.304688 35.441406 C 25.707031 35.441406 25.230469 34.96875 25.230469 34.375 C 25.230469 33.777344 25.707031 33.300781 26.304688 33.300781 Z M 9.015625 33.8125 C 8.691406 33.8125 8.433594 34.070312 8.433594 34.394531 C 8.433594 34.71875 8.691406 34.972656 9.015625 34.972656 C 9.339844 34.972656 9.597656 34.71875 9.597656 34.394531 C 9.597656 34.070312 9.339844 33.8125 9.015625 33.8125 Z M 26.304688 33.8125 C 25.980469 33.8125 25.71875 34.070312 25.71875 34.394531 C 25.71875 34.71875 25.980469 34.972656 26.304688 34.972656 C 26.625 34.972656 26.886719 34.71875 26.886719 34.394531 C 26.886719 34.070312 26.625 33.8125 26.304688 33.8125 Z M 26.304688 33.8125 "/></g></g></svg>